<?xml version="1.0" standalone="no"?>
<!DOCTYPE svg PUBLIC "-//W3C//DTD SVG 20010904//EN"
 "http://www.w3.org/TR/2001/REC-SVG-20010904/DTD/svg10.dtd">
<svg version="1.0" xmlns="http://www.w3.org/2000/svg"
 width="300.000000pt" height="300.000000pt" viewBox="0 0 300.000000 300.000000"
 preserveAspectRatio="xMidYMid meet">
<metadata>
Created by potrace 1.10, written by Peter Selinger 2001-2011
</metadata>
<g transform="translate(0.000000,300.000000) scale(0.100000,-0.100000)"
fill="#fdfcfc" stroke="none">
<path d="M1284 2329 c-351 -27 -518 -147 -584 -420 -57 -238 -47 -698 18 -889
65 -188 180 -285 395 -332 117 -26 502 -36 656 -19 375 44 518 187 562 563 17
153 6 537 -19 655 -52 237 -177 365 -407 416 -144 33 -401 43 -621 26z m466
-33 c30 -3 96 -15 145 -26 50 -12 98 -22 108 -23 9 0 17 -5 17 -10 0 -4 4 -6
9 -3 5 3 14 -1 21 -9 7 -8 19 -15 26 -15 8 0 14 -5 14 -11 0 -5 4 -8 9 -5 5 3
11 -1 15 -9 3 -8 10 -15 17 -15 11 0 30 -21 82 -93 16 -22 23 -36 15 -31 -7 4
-6 -1 4 -12 9 -10 20 -32 24 -49 4 -16 9 -34 13 -40 7 -12 5 -4 25 -136 28
-185 20 -577 -15 -719 -12 -50 -58 -167 -74 -189 -22 -30 -119 -121 -130 -122
-2 0 -20 -6 -39 -14 -20 -8 -40 -15 -46 -15 -5 0 -10 -5 -10 -11 0 -5 -4 -8
-8 -5 -5 3 -29 -1 -54 -9 -88 -26 -274 -38 -498 -31 -238 7 -272 9 -313 25
-15 6 -31 10 -35 9 -9 -2 -59 18 -95 37 -15 8 -25 10 -22 5 9 -14 -76 44 -97
67 -44 47 -55 61 -76 95 -13 20 -25 45 -27 55 -2 10 -14 52 -25 93 -28 101
-30 130 -35 382 -5 276 12 408 68 545 39 96 70 135 148 189 43 30 161 74 198
74 10 0 21 3 24 7 7 7 15 8 110 16 33 3 60 7 62 9 5 5 386 0 445 -6z"/>
<path d="M1041 1979 c-18 -17 -21 -31 -21 -98 0 -119 -28 -111 388 -111 l352
0 0 -355 0 -354 23 -13 c30 -16 154 -20 178 -5 18 11 19 29 19 468 0 413 -2
458 -17 470 -13 11 -100 14 -458 16 -429 2 -443 1 -464 -18z m909 -466 l0
-453 -80 0 -80 0 0 370 0 370 -370 0 -370 0 0 78 c0 43 2 81 4 83 2 2 205 4
450 4 l446 0 0 -452z"/>
<path d="M1291 1721 c-8 -5 -21 -7 -29 -3 -11 4 -13 2 -7 -8 6 -10 4 -12 -9
-7 -23 9 -86 -32 -147 -96 -19 -21 -28 -25 -32 -15 -3 7 -5 4 -4 -7 0 -11 -11
-45 -26 -76 -23 -50 -26 -67 -24 -145 2 -80 6 -96 37 -152 46 -87 146 -169
216 -178 11 -1 39 -7 62 -14 28 -7 54 -8 76 -1 19 5 38 6 42 3 4 -4 4 -1 -1 7
-6 10 -2 12 14 6 11 -3 21 -2 21 3 0 5 14 12 31 16 46 9 153 124 180 194 45
116 20 268 -57 347 -19 19 -34 39 -34 45 0 5 -16 14 -34 21 -20 7 -32 17 -29
23 3 6 3 8 -2 4 -4 -4 -24 2 -43 14 -39 24 -175 37 -201 19z m201 -48 c65 -30
133 -95 165 -162 23 -47 27 -69 27 -136 0 -96 -21 -150 -85 -220 -119 -129
-320 -141 -451 -26 -67 60 -101 129 -106 222 -9 160 69 277 226 336 51 19 165
12 224 -14z"/>
<path d="M1319 1531 c-110 -35 -154 -165 -86 -255 33 -43 102 -71 154 -63 144
24 183 226 58 298 -38 22 -92 30 -126 20z m104 -30 c5 -1 5 -5 2 -11 -3 -5 -1
-10 6 -10 20 0 49 -31 49 -52 0 -11 3 -17 8 -14 4 2 7 -16 6 -41 -4 -117 -143
-173 -223 -91 -40 41 -64 153 -28 131 6 -4 8 0 4 10 -6 16 43 67 64 67 6 0 8
3 6 8 -4 5 50 7 106 3z"/>
</g>
</svg>
