 <svg  version="1.0" xmlns="http://www.w3.org/2000/svg"  width="210.000000pt" height="150.000000pt" viewBox="0 0 210.000000 150.000000"  preserveAspectRatio="xMidYMid meet">  <g transform="translate(0.000000,150.000000) scale(0.100000,-0.100000)" fill="#fdf7f7" stroke="none"> <path d="M454 909 c-63 -18 -86 -81 -73 -204 6 -57 11 -73 33 -91 30 -27 97 -39 171 -31 98 10 125 47 125 171 0 90 -21 136 -70 153 -41 14 -141 15 -186 2z m181 -159 c0 -79 -2 -90 -17 -90 -16 0 -18 10 -18 75 l0 75 -75 0 c-60 0 -75 3 -75 15 0 12 17 15 93 15 l92 0 0 -90z m-81 19 c48 -38 23 -109 -39 -109 -37 0 -65 28 -65 66 0 23 42 64 65 64 7 0 24 -9 39 -21z"/> <path d="M495 744 c-18 -19 -16 -33 7 -48 12 -7 21 -6 32 3 22 18 20 38 -3 51 -15 7 -24 6 -36 -6z"/> <path d="M825 758 c-17 -45 -31 -86 -33 -90 -2 -4 6 -8 17 -8 14 0 21 6 21 20 0 17 7 20 39 20 31 0 41 -4 46 -20 3 -11 15 -20 25 -20 16 0 15 8 -14 90 -25 73 -35 90 -51 90 -16 0 -26 -16 -50 -82z m69 -5 c6 -20 4 -23 -18 -23 -29 0 -31 7 -14 45 12 27 19 23 32 -22z"/> <path d="M970 751 l0 -90 47 2 c40 2 50 6 62 29 28 50 -16 117 -59 90 -19 -11 -20 -10 -20 23 0 24 -5 35 -15 35 -12 0 -15 -17 -15 -89z m86 -17 c9 -35 -18 -63 -40 -44 -16 13 -22 51 -9 63 16 16 43 6 49 -19z"/> <path d="M1230 810 c0 -11 -4 -20 -10 -20 -5 0 -10 -7 -10 -15 0 -8 4 -15 9 -15 6 0 11 -21 13 -47 3 -44 5 -48 31 -51 15 -2 27 1 27 7 0 6 -7 11 -15 11 -22 0 -20 69 3 86 16 12 16 13 0 19 -10 4 -18 16 -18 26 0 10 -7 19 -15 19 -8 0 -15 -9 -15 -20z"/> <path d="M1650 810 c0 -11 -4 -20 -10 -20 -5 0 -10 -7 -10 -15 0 -8 4 -15 9 -15 6 0 11 -21 13 -47 3 -44 5 -48 31 -51 15 -2 27 1 27 7 0 6 -7 11 -15 11 -11 0 -15 11 -15 40 0 22 5 40 10 40 6 0 10 7 10 15 0 8 -4 15 -10 15 -5 0 -10 9 -10 20 0 11 -7 20 -15 20 -8 0 -15 -9 -15 -20z"/> <path d="M1109 774 c-16 -20 -3 -44 34 -62 15 -7 27 -17 27 -23 0 -13 -34 -11 -47 2 -8 8 -13 7 -18 -1 -16 -26 59 -42 83 -18 23 23 13 47 -25 63 -27 12 -34 18 -25 27 8 8 15 8 26 -1 20 -17 41 -4 25 15 -15 19 -63 18 -80 -2z"/> <path d="M1300 725 c0 -50 3 -65 14 -65 10 0 16 14 18 43 2 32 8 44 26 52 24 10 30 35 9 35 -7 0 -18 -5 -25 -12 -9 -9 -12 -9 -12 0 0 7 -7 12 -15 12 -12 0 -15 -14 -15 -65z"/> <path d="M1400 775 c-16 -20 -4 -32 18 -19 19 12 42 8 42 -7 0 -5 -9 -9 -19 -9 -10 0 -29 -9 -42 -19 -37 -31 -16 -56 48 -57 l50 -2 -5 52 c-2 28 -9 57 -14 64 -14 17 -63 15 -78 -3z m58 -72 c-4 -23 -48 -31 -48 -10 0 9 6 18 13 20 25 11 38 7 35 -10z"/> <path d="M1527 772 c-19 -21 -22 -64 -7 -93 13 -23 72 -26 90 -4 18 21 4 32 -21 17 -26 -16 -49 0 -49 34 0 32 35 51 49 27 8 -14 12 -15 22 -6 10 10 9 15 -1 28 -17 21 -63 19 -83 -3z"/> </g> </svg> 